<svg width="10" height="10" viewBox="0 0 10 10" fill="none" xmlns="http://www.w3.org/2000/svg">
<path d="M8.33333 2.08333C8.44384 2.08333 8.54982 2.12723 8.62796 2.20537C8.7061 2.28351 8.75 2.38949 8.75 2.5C8.75 2.61051 8.7061 2.71649 8.62796 2.79463C8.54982 2.87277 8.44384 2.91667 8.33333 2.91667H7.91667L7.91542 2.94625L7.52667 8.3925C7.5117 8.60274 7.41762 8.7995 7.26338 8.94315C7.10914 9.0868 6.90619 9.16667 6.69542 9.16667H3.30417C3.09339 9.16667 2.89044 9.0868 2.7362 8.94315C2.58196 8.7995 2.48788 8.60274 2.47292 8.3925L2.08417 2.94667C2.08353 2.93668 2.08326 2.92667 2.08333 2.91667H1.66667C1.55616 2.91667 1.45018 2.87277 1.37204 2.79463C1.2939 2.71649 1.25 2.61051 1.25 2.5C1.25 2.38949 1.2939 2.28351 1.37204 2.20537C1.45018 2.12723 1.55616 2.08333 1.66667 2.08333H8.33333ZM5.83333 0.833332C5.94384 0.833332 6.04982 0.877231 6.12796 0.955371C6.2061 1.03351 6.25 1.13949 6.25 1.25C6.25 1.36051 6.2061 1.46649 6.12796 1.54463C6.04982 1.62277 5.94384 1.66667 5.83333 1.66667H4.16667C4.05616 1.66667 3.95018 1.62277 3.87204 1.54463C3.7939 1.46649 3.75 1.36051 3.75 1.25C3.75 1.13949 3.7939 1.03351 3.87204 0.955371C3.95018 0.877231 4.05616 0.833332 4.16667 0.833332H5.83333Z" fill="#A46969"/>
</svg>
