<svg width="10" height="10" viewBox="0 0 10 10" fill="none" xmlns="http://www.w3.org/2000/svg">
<g clip-path="url(#clip0_102_48)">
<path d="M1.17221 6.44445L0.644433 8.72222C0.626227 8.80549 0.626851 8.89177 0.64626 8.97476C0.665669 9.05776 0.703373 9.13536 0.756617 9.20192C0.809862 9.26848 0.877301 9.3223 0.95401 9.35945C1.03072 9.3966 1.11476 9.41615 1.19999 9.41667C1.2397 9.42068 1.27972 9.42068 1.31943 9.41667L3.6111 8.88889L8.0111 4.50556L5.55554 2.05556L1.17221 6.44445Z" fill="#9A9B9D"/>
<path d="M9.39444 2.31111L7.75555 0.672222C7.6478 0.565018 7.50199 0.504837 7.34999 0.504837C7.198 0.504837 7.05218 0.565018 6.94444 0.672222L6.03333 1.58333L8.4861 4.03611L9.39721 3.125C9.45053 3.07141 9.49276 3.00783 9.52148 2.93791C9.55021 2.86798 9.56486 2.79307 9.5646 2.71748C9.56434 2.64188 9.54918 2.56708 9.51998 2.49735C9.49078 2.42762 9.44812 2.36433 9.39444 2.31111Z" fill="#9A9B9D"/>
</g>
<defs>
<clipPath id="clip0_102_48">
<rect width="10" height="10" fill="white"/>
</clipPath>
</defs>
</svg>
