<svg width="8" height="8" viewBox="0 0 8 8" fill="none" xmlns="http://www.w3.org/2000/svg">
<path d="M6.49996 3.16667H4.83329V1.5C4.83329 1.27899 4.7455 1.06703 4.58921 0.910746C4.43293 0.754465 4.22097 0.666668 3.99996 0.666668C3.77895 0.666668 3.56698 0.754465 3.4107 0.910746C3.25442 1.06703 3.16663 1.27899 3.16663 1.5L3.19621 3.16667H1.49996C1.27895 3.16667 1.06698 3.25447 0.910704 3.41075C0.754423 3.56703 0.666626 3.77899 0.666626 4C0.666626 4.22101 0.754423 4.43298 0.910704 4.58926C1.06698 4.74554 1.27895 4.83333 1.49996 4.83333L3.19621 4.80375L3.16663 6.5C3.16663 6.72101 3.25442 6.93298 3.4107 7.08926C3.56698 7.24554 3.77895 7.33333 3.99996 7.33333C4.22097 7.33333 4.43293 7.24554 4.58921 7.08926C4.7455 6.93298 4.83329 6.72101 4.83329 6.5V4.80375L6.49996 4.83333C6.72097 4.83333 6.93293 4.74554 7.08921 4.58926C7.24549 4.43298 7.33329 4.22101 7.33329 4C7.33329 3.77899 7.24549 3.56703 7.08921 3.41075C6.93293 3.25447 6.72097 3.16667 6.49996 3.16667Z" fill="#9A9B9D"/>
</svg>
