<svg width="24" height="24" viewBox="0 0 24 24" fill="none" xmlns="http://www.w3.org/2000/svg">
<g clip-path="url(#clip0_13_28)">
<path d="M12.0666 7.33334C9.46657 7.33334 7.3999 9.40001 7.3999 12C7.3999 14.6 9.46657 16.6667 12.0666 16.6667C14.6666 16.6667 16.7332 14.6 16.7332 12C16.7332 9.40001 14.6666 7.33334 12.0666 7.33334ZM12.0666 15.3333C10.1999 15.3333 8.73324 13.8667 8.73324 12C8.73324 10.1333 10.1999 8.66668 12.0666 8.66668C13.9332 8.66668 15.3999 10.1333 15.3999 12C15.3999 13.8667 13.9332 15.3333 12.0666 15.3333Z" fill="black"/>
<path d="M21.8666 9.79999L19.9999 9.19999L19.5999 8.19999L20.5333 6.46666C20.7333 6.06666 20.6666 5.53333 20.3333 5.19999L18.7333 3.59999C18.3999 3.26666 17.8666 3.19999 17.4666 3.39999L15.7333 4.33333L14.7333 3.93333L14.1333 2.06666C13.9999 1.66666 13.5999 1.33333 13.1333 1.33333H10.8666C10.3999 1.33333 9.99992 1.66666 9.93325 2.13333L9.33325 3.99999C8.93325 4.06666 8.59992 4.19999 8.26658 4.39999L6.53325 3.46666C6.13325 3.26666 5.59992 3.33333 5.26659 3.66666L3.66659 5.26666C3.33325 5.59999 3.26659 6.13333 3.46659 6.53333L4.33325 8.19999C4.19992 8.53333 4.06659 8.93333 3.93325 9.26666L2.06659 9.86666C1.66659 9.99999 1.33325 10.4 1.33325 10.8667V13.1333C1.33325 13.6 1.66659 14 2.13325 14.1333L3.99992 14.7333L4.39992 15.7333L3.46659 17.4667C3.26659 17.8667 3.33325 18.4 3.66659 18.7333L5.26659 20.3333C5.59992 20.6667 6.13325 20.7333 6.53325 20.5333L8.26658 19.6L9.26658 20L9.86658 21.9333C9.99992 22.3333 10.3999 22.6667 10.8666 22.6667H13.1333C13.5999 22.6667 13.9999 22.3333 14.1333 21.9333L14.7333 20L15.7333 19.6L17.4666 20.5333C17.8666 20.7333 18.3999 20.6667 18.7333 20.3333L20.3333 18.7333C20.6666 18.4 20.7333 17.8667 20.5333 17.4667L19.5999 15.7333L19.9999 14.7333L21.9333 14.1333C22.3333 14 22.6666 13.6 22.6666 13.1333V10.8667C22.6666 10.4 22.3333 9.93333 21.8666 9.79999ZM21.3333 12.9333L18.9333 13.6667L18.8666 14L18.2666 15.4L18.0666 15.7333L19.2666 17.9333L17.9333 19.2667L15.7333 18.0667L15.3999 18.2667C14.9333 18.5333 14.4666 18.7333 13.9999 18.8667L13.6666 18.9333L12.9333 21.3333H11.0666L10.3333 18.9333L9.99992 18.8667L8.59992 18.2667L8.26658 18.0667L6.06659 19.2667L4.73325 17.9333L5.93325 15.7333L5.73325 15.4C5.46659 14.9333 5.26658 14.4667 5.13325 14L5.06659 13.6667L2.66659 12.9333V11.0667L4.93325 10.4L5.06659 10.0667C5.19992 9.53333 5.39992 9.06666 5.66659 8.59999L5.86659 8.26666L4.73325 6.06666L6.06659 4.73333L8.19992 5.93333L8.53325 5.73333C8.99992 5.46666 9.46658 5.26666 9.99992 5.13333L10.3333 4.99999L11.0666 2.66666H12.9333L13.6666 4.99999L13.9999 5.13333C14.4666 5.26666 14.9333 5.46666 15.3999 5.73333L15.7333 5.93333L17.9333 4.73333L19.2666 6.06666L18.0666 8.26666L18.2666 8.59999C18.5333 9.06666 18.7333 9.53333 18.8666 9.99999L18.9333 10.3333L21.3333 11.0667V12.9333Z" fill="black"/>
</g>
<defs>
<clipPath id="clip0_13_28">
<rect width="24" height="24" fill="white"/>
</clipPath>
</defs>
</svg>
