<svg width="20" height="20" viewBox="0 0 20 20" fill="none" xmlns="http://www.w3.org/2000/svg">
<path d="M10.001 8.2C10.29 8.19987 10.576 8.14283 10.8429 8.03215C11.1097 7.92147 11.3522 7.75931 11.5564 7.55493C11.7606 7.35055 11.9225 7.10795 12.033 6.84098C12.1434 6.57401 12.2002 6.28791 12.2 5.999C12.1999 5.71009 12.1429 5.42404 12.0322 5.15717C11.9215 4.89031 11.7594 4.64785 11.555 4.44366C11.3506 4.23946 11.108 4.07752 10.841 3.96708C10.5741 3.85664 10.288 3.79987 9.99905 3.8C9.41557 3.80026 8.8561 4.0323 8.44371 4.44507C8.03131 4.85784 7.79978 5.41752 7.80005 6.001C7.80031 6.58448 8.03235 7.14395 8.44512 7.55634C8.85789 7.96873 9.41757 8.20026 10.001 8.2ZM10.001 11.8C9.41731 11.8 8.85747 12.0319 8.44471 12.4447C8.03194 12.8574 7.80005 13.4173 7.80005 14.001C7.80005 14.5847 8.03194 15.1446 8.44471 15.5573C8.85747 15.9701 9.41731 16.202 10.001 16.202C10.5848 16.202 11.1446 15.9701 11.5574 15.5573C11.9702 15.1446 12.202 14.5847 12.202 14.001C12.202 13.4173 11.9702 12.8574 11.5574 12.4447C11.1446 12.0319 10.5848 11.8 10.001 11.8Z" fill="black"/>
</svg>
