<svg width="22" height="23" viewBox="0 0 22 23" fill="none" xmlns="http://www.w3.org/2000/svg">
<path d="M8.55556 18.4C8.87971 18.4 9.19059 18.2788 9.4198 18.0632C9.64901 17.8475 9.77778 17.555 9.77778 17.25V10.35C9.77778 10.045 9.64901 9.75249 9.4198 9.53683C9.19059 9.32116 8.87971 9.2 8.55556 9.2C8.2314 9.2 7.92053 9.32116 7.69131 9.53683C7.4621 9.75249 7.33333 10.045 7.33333 10.35V17.25C7.33333 17.555 7.4621 17.8475 7.69131 18.0632C7.92053 18.2788 8.2314 18.4 8.55556 18.4ZM20.7778 4.6H15.8889V3.45C15.8889 2.535 15.5026 1.65748 14.8149 1.01048C14.1273 0.363481 13.1947 0 12.2222 0H9.77778C8.80532 0 7.87269 0.363481 7.18505 1.01048C6.49742 1.65748 6.11111 2.535 6.11111 3.45V4.6H1.22222C0.898069 4.6 0.587192 4.72116 0.357981 4.93683C0.128769 5.15249 0 5.445 0 5.75C0 6.055 0.128769 6.34751 0.357981 6.56317C0.587192 6.77884 0.898069 6.9 1.22222 6.9H2.44444V19.55C2.44444 20.465 2.83075 21.3425 3.51839 21.9895C4.20602 22.6365 5.13865 23 6.11111 23H15.8889C16.8613 23 17.794 22.6365 18.4816 21.9895C19.1692 21.3425 19.5556 20.465 19.5556 19.55V6.9H20.7778C21.1019 6.9 21.4128 6.77884 21.642 6.56317C21.8712 6.34751 22 6.055 22 5.75C22 5.445 21.8712 5.15249 21.642 4.93683C21.4128 4.72116 21.1019 4.6 20.7778 4.6ZM8.55556 3.45C8.55556 3.145 8.68433 2.85249 8.91354 2.63683C9.14275 2.42116 9.45362 2.3 9.77778 2.3H12.2222C12.5464 2.3 12.8573 2.42116 13.0865 2.63683C13.3157 2.85249 13.4444 3.145 13.4444 3.45V4.6H8.55556V3.45ZM17.1111 19.55C17.1111 19.855 16.9823 20.1475 16.7531 20.3632C16.5239 20.5788 16.213 20.7 15.8889 20.7H6.11111C5.78696 20.7 5.47608 20.5788 5.24687 20.3632C5.01766 20.1475 4.88889 19.855 4.88889 19.55V6.9H17.1111V19.55ZM13.4444 18.4C13.7686 18.4 14.0795 18.2788 14.3087 18.0632C14.5379 17.8475 14.6667 17.555 14.6667 17.25V10.35C14.6667 10.045 14.5379 9.75249 14.3087 9.53683C14.0795 9.32116 13.7686 9.2 13.4444 9.2C13.1203 9.2 12.8094 9.32116 12.5802 9.53683C12.351 9.75249 12.2222 10.045 12.2222 10.35V17.25C12.2222 17.555 12.351 17.8475 12.5802 18.0632C12.8094 18.2788 13.1203 18.4 13.4444 18.4Z" fill="white"/>
</svg>
